# xmcd CD database file
#
# Track frame offsets:
#	182
#	18495
#	36762
#
# Disc length: 773 seconds
#
# Revision: 3
# Processed by: cddbd v1.5.2PL0 Copyright (c) Steve Scherf et al.
# Submitted via: CDex 1.79
#
DISCID=1b030303
DTITLE=Sarah Connor - Skin On Skin
DYEAR=2002
DGENRE=R&B
TTITLE0=Skin On Skin (Radio Version)
TTITLE1=Skin On Skin (Us College Radio Version)
TTITLE2=Skin On Skin (Album Version)
EXTD=YEAR: 2002
EXTT0=
EXTT1=
EXTT2=
PLAYORDER=
